<svg version="1.1" id="Layer_2" xmlns="http://www.w3.org/2000/svg" x="0" y="0" viewBox="0 0 345 345" style="enable-background:new 0 0 345 345" xml:space="preserve"><style>.st1{fill:#fff}</style><linearGradient id="SVGID_1_" gradientUnits="userSpaceOnUse" x1="172.5" y1="347.824" x2="172.5" y2="-2.824" gradientTransform="rotate(-11.11 172.485 172.486)"><stop offset="0" style="stop-color:#4a96d2"/><stop offset="1" style="stop-color:#5cb885"/></linearGradient><path d="m12.2 100.9 109-92.4c9.6-8.1 23-10.7 35-6.7L293 47.3c12.1 4 21 14 23.5 26.1l27.9 137.8c2.5 12.2-1.9 24.7-11.6 32.8l-109 92.4c-9.6 8.1-23 10.7-35 6.7L52 297.7c-12.1-4-21-14-23.5-26.1L.7 133.7c-2.5-12.2 1.9-24.7 11.5-32.8z" style="fill:url(#SVGID_1_)"/><path class="st1" d="m95.1 241 29.8 17.6 18.7-42.8-39.3 6.5z"/><path class="st1" d="M252.4 241 184.8 86.4h-22.9l-38.8 93.9h-16.9L92.6 212h110.3l19.7 46.6 29.8-17.6zm-93.3-60.7 15.1-36.3 15.3 36.3h-30.4z"/></svg>