
<svg xmlns="http://www.w3.org/2000/svg" data-name="logosandtypes com" viewBox="42.04 8.72 65.91 136.34"><g data-name="Layer 3"><g data-name="Layer 2"><path data-name="Layer 3-2" d="M0 0h150v150H0V0Z" style="fill:none"/></g></g><path d="M75.17 128.34c-7.77 0-14.49-5.53-15.98-13.14-1.49-7.62 2.54-15.38 9.86-18.37 7.17-2.99 15.53-.45 19.86 5.97s3.43 15.08-2.09 20.61c-3.14 3.14-7.32 4.93-11.65 4.93ZM58.74 41.72c0-7.77 5.68-14.49 13.29-15.98s15.23 2.69 18.22 10.01c2.84 7.32.3 15.53-6.27 19.86-6.57 4.33-15.23 3.29-20.61-2.24-2.99-3.14-4.63-7.32-4.63-11.65Zm24.19 38.23v-6.27c16.13-4.03 26.73-19.41 24.79-35.99-2.09-16.58-15.98-28.97-32.71-28.97S44.39 21.12 42.3 37.69c-2.09 16.58 8.51 31.96 24.79 35.99v6.42c-16.13 4.03-26.88 19.41-24.79 35.99 2.09 16.58 16.13 28.97 32.71 28.97s30.76-12.4 32.71-28.97-8.66-31.96-24.79-36.14Z" style="fill:#19e624"/></svg>