<svg xmlns="http://www.w3.org/2000/svg" xmlns:xlink="http://www.w3.org/1999/xlink" viewBox="0 0 340.16 340.16"><defs><linearGradient id="a" x1="170.54" x2="170.54" y1="192.75" y2="340.16" gradientUnits="userSpaceOnUse"><stop offset="0" stop-color="#ffefcf"/><stop offset="1" stop-color="#d9bb93"/></linearGradient><linearGradient id="b" x1="-3166.24" x2="-3081.2" y1="165.53" y2="165.53" gradientTransform="matrix(-1 0 0 1 -2854.37 0)" gradientUnits="userSpaceOnUse"><stop offset="0" stop-color="#ffefcf"/><stop offset="1" stop-color="#d9bb93"/></linearGradient><linearGradient xlink:href="#a" id="d" x1="28.28" x2="113.32" y1="164.62" y2="164.62"/><linearGradient xlink:href="#a" id="e" x1="170.7" x2="170.7" y1="239.86" y2="24.43"/><filter id="c" filterUnits="userSpaceOnUse"><feOffset dy="5.67"/><feGaussianBlur result="A" stdDeviation="5.67"/><feFlood flood-color="#000" flood-opacity=".2"/><feComposite in2="A" operator="in"/><feComposite in="SourceGraphic"/></filter><filter id="f" filterUnits="userSpaceOnUse"><feOffset dy="5.67"/><feGaussianBlur result="A" stdDeviation="8.5"/><feFlood flood-color="#000" flood-opacity=".1"/><feComposite in2="A" operator="in"/><feComposite in="SourceGraphic"/></filter></defs><circle cx="170.08" cy="170.08" r="170.08" fill="#79b9b1"/><path fill="url(#a)" d="m242.61 192.75-71.91 3-71.91-3s9.73 45.18-25.42 117.23c27.46 19.02 60.78 30.17 96.71 30.17s70.01-11.4 97.64-30.81c-34.78-71.67-25.11-116.59-25.11-116.59"/><path fill="url(#b)" d="M228.66 204.32c-3.86 38.89 13.29 85.93 75.69 85.93 21.38 0-11.55-49.42-.05-83.63 11.4-33.91 10.65-71.85-7.2-103.58-27.7-49.23-70.27-62.24-70.27-62.24l1.82 163.52Z" filter="url(#c)"/><path fill="url(#d)" d="M106.09 193.08c3.85 38.89-7.98 95.36-70.25 95.36-21.34 0 11.48-47.61 0-81.81-11.38-33.91-10.63-71.85 7.19-103.58 27.65-49.23 70.29-62.24 70.29-62.24z" filter="url(#c)"/><path fill="url(#e)" d="M246 155.34c7.51-22.34 12.4-46.58 8.19-69.87-2.77-15.31-16.07-31.72-25.36-43.81s-19.12-19.3-33.63-16.7c-6.53 1.17-16.69 5.46-26.67 5.46-8.55 0-14.27-4.9-28.73-4.53 0 0-17.29-.83-32.55 20.72S76.32 104.89 92.5 160.23c10.11 34.59 28.56 63.94 46.84 75.89 10.96 7.17 21.49 1.82 30.5 1.82s20.51 4.65 31.22-3.83c16.58-13.12 33.15-43.66 44.95-78.77z" filter="url(#f)"/><ellipse cx="120.56" cy="88.32" fill="#360507" rx="16.39" ry="15.69"/><circle cx="127.8" cy="81.77" r="6.05" fill="#fff"/><ellipse cx="219.59" cy="88.32" fill="#360507" rx="16.39" ry="15.69"/><circle cx="226.84" cy="81.77" r="6.05" fill="#fff"/><path fill="#ba7961" d="M183.1 154.08c-6.49 0-6.13 1.6-13.02 1.6s-6.53-1.6-13.02-1.6c-8.33 0-18.71 1.76-18.71 25s23.23 29 31.73 29 31.73-5.77 31.73-29-10.37-25-18.71-25"/><path fill="#98634f" d="M149.19 187.57c1.76-.64 3.81-1.93 3.28-4.61-1.35-6.75 6.66-8.49 8.58-1.88s-3.34 7.4-6.01 7.45c-2.8.06-6.77-.63-5.85-.96m42.81 0c-1.76-.64-3.81-1.93-3.28-4.61 1.35-6.75-6.66-8.49-8.58-1.88s3.34 7.4 6.01 7.45c2.8.06 6.77-.63 5.85-.96"/></svg>