<svg xmlns="http://www.w3.org/2000/svg" id="Layer_1" data-name="Layer 1" version="1.1" viewBox="0 -0.03 160.95 196.99"><defs id="defs857"><style id="style855">.cls-3{fill:#e9551d}.cls-4{fill:#ef7c10}.cls-5{fill:#f6a307}</style></defs><path class="cls-3" d="M134.49 28a67 67 0 0 1 11.84 37 62.44 62.44 0 0 0-16.46-18.52 72.41 72.41 0 0 1 8.56 36.33A32.55 32.55 0 0 0 124.62 63c4.3 10.75 8.43 23.54 2.07 33.22a93.11 93.11 0 0 0-6-15 81.23 81.23 0 0 1-10.92 46 59.53 59.53 0 0 0-8.2-29.47 126.3 126.3 0 0 1-5.71 38.43 101.78 101.78 0 0 0-13.14-33.15 133.18 133.18 0 0 1-9.84 28.19 125.09 125.09 0 0 0-9.87-28c-5.64 9.15-4.66 20.73-3.44 31.38a90.38 90.38 0 0 1-11.64-51.77A34.75 34.75 0 0 0 39.86 101c-7.64-9.9-6.49-23.7-5-36.13a61.76 61.76 0 0 0-15.78 19.9C17.73 68 25.93 52.14 33.9 37.29a60.08 60.08 0 0 1-17.55 16.13A270.55 270.55 0 0 0 26.85 22a23.19 23.19 0 0 1-7.51 10.82 7.66 7.66 0 0 1-.53 2.07C14.22 45.06 2.68 58.51 2.06 59.69c0 0 7.28-.82 12.33-5.51C6.58 69.1 19.44 96.9 25.6 103.92c-1.18-3.18-.92-7.67 1.84-9.67-1.35 29.05 22.88 46 22.88 46S47 133.69 49.8 130c1.57 8 35.9 19.14 35.9 35.14 0-16.23 36.92-28 40.76-50.29.62 0 1.57 6.59-.33 9 17.58-10.33 29.18-43.12 27.9-52.6 2.76 3 4.37 9.78 4.37 9.78s10.59-24.5-.33-45.12C153.94 28 150 24.5 146.56 22c1.11 5 3.64 9.58 6.13 14.07a26.36 26.36 0 0 0-18.2-8.07Z" transform="translate(-2.06 -3.03)" id="path863"/><path class="cls-4" d="M80.62 25c-37.84-.92-52.36-12.37-52.36-22 0 17.83-8.23 24-8.92 29.83A23.19 23.19 0 0 0 26.85 22a270.55 270.55 0 0 1-10.5 31.38A60.08 60.08 0 0 0 33.9 37.29C25.93 52.14 17.73 68 19.08 84.77A61.35 61.35 0 0 1 34.85 64.9c-1.48 12.43-2.59 26.26 5 36.23A34.7 34.7 0 0 1 48 82.93a90.45 90.45 0 0 0 11.61 51.84c-1.18-10.65-2.2-22.23 3.44-31.38a124.08 124.08 0 0 1 9.87 28 133.07 133.07 0 0 0 9.84-28.2 101.58 101.58 0 0 1 13.15 33.15 126.2 126.2 0 0 0 5.7-38.43 59.88 59.88 0 0 1 8.2 29.48 81.17 81.17 0 0 0 10.92-46 94.68 94.68 0 0 1 6 15c6.36-9.7 2.23-22.49-2.06-33.21A32.7 32.7 0 0 1 138.46 83a72.41 72.41 0 0 0-8.56-36.33 62.44 62.44 0 0 1 16.46 18.52 67.06 67.06 0 0 0-11.83-37 26.13 26.13 0 0 1 18.19 8.07c-2.49-4.49-5-9.08-6.13-14.07-5.54-3.93-9.93-5.44-12.43-19-.03 9.44-15.67 22.72-53.54 21.81Z" transform="translate(-2.06 -3.03)" id="path865"/><path class="cls-5" d="M60 31.22c-6.69 5.81-7.93 18.3-6.65 27a21.76 21.76 0 0 1 6.25-10.6c-1.67 5 .17 10.46 2.17 15.38 2.39 5.9 5.08 11.74 9 16.72a35.1 35.1 0 0 1 1.37-20.53c0 2.46 1.32 4.73 2.5 6.89a119.6 119.6 0 0 1 11.8 31.58c5.34-10.63 3.61-23.38 7-34.76 4.85 4.85 6.06 12.13 6.82 18.92a49.92 49.92 0 0 0 4.59-28.53 29 29 0 0 1 7.9 12.71 46.24 46.24 0 0 0-1-23.38c-1.48-4.75-4.07-9.6-8.63-11.74a18.79 18.79 0 0 0-5.54-1.44c-3.28-.46-6.59-.72-9.9-1a64.1 64.1 0 0 0-12.23-.1A21.75 21.75 0 0 0 64.2 32.7" transform="translate(-2.06 -3.03)" id="path867"/><path d="M61 30.11C59.11 47 95.34 57.85 104.46 31.55c2.82-8.13-43.02-5.77-43.46-1.44Z" transform="translate(-2.06 -3.03)" id="path869" style="fill:#b91d1b"/><path d="M63.8 36.34c0 2.66 37.25 1.77 37.18-.66 0-.52.26-6.13.3-6.75-10.46.56-28.36.29-37.51 3.08v4.33Z" transform="translate(-2.06 -3.03)" id="path871" style="fill:#fff"/><path class="cls-5" d="M82.36 23.36c6.59 6.85 41.41 8.06 50.3-2.53-6.07 5.08-14.14 4.56-16.89 3.54a7.67 7.67 0 0 0 5.64-5.9c-15.18 15.31-19.64-10.95-38.85 3.08-15.87-11.55-26.3 4.82-38.4-.85l5.15 3.67s-7.58 5-16.89-3.54a21.39 21.39 0 0 0 4.23 4.69c12.98 4.48 39.54 2.75 45.71-2.16Z" transform="translate(-2.06 -3.03)" id="path873"/><path class="cls-3" d="M82.56 29.42c11.67 6.49 40.42 6.2 50.1-8.56-8.89 10.56-43.71 9.35-50.3 2.5-6.17 4.91-32.73 6.64-45.71 2.16 12.1 10.07 35.61 9.64 45.91 3.9Z" transform="translate(-2.06 -3.03)" id="path875"/><path class="cls-3" d="M86.52 159.66c-6.75 3.77-15.9 24.2 1.31 40.33-1.31-15.15 14.3-23.81-1.31-40.33" transform="translate(-2.06 -3.03)" id="path877"/><path class="cls-4" d="M86.13 159.66c-3.31 3.77-6.72 24.2 1.74 40.33-.66-15.15 5.9-23.81-1.74-40.33" transform="translate(-2.06 -3.03)" id="path879"/><path d="M66.59 156.41c1.34-2.65 18.72 2.66 18.72 2.66s15.31-6.1 18.1-5.15 1.87 15.71 0 15.71-18.07-8.27-18.07-8.27-15.64 8.5-17.18 8.27-2.36-11.63-1.57-13.22Z" transform="translate(-2.06 -3.03)" id="path881" style="fill:#020203"/></svg>