<svg xmlns="http://www.w3.org/2000/svg" baseProfile="tiny" overflow="visible" viewBox="3.85 1.74 86.26 86.26"><g fill="#E62A29"><path d="M47.285 9.272c-19.66-.169-35.735 15.63-35.905 35.29-.169 19.66 15.63 35.734 35.291 35.903 19.66.171 35.735-15.629 35.905-35.29l.001-.311C82.638 25.3 66.85 9.378 47.285 9.272zm16.072 34.311c-3.9 6.659-11.645 7.513-12.524 7.588l-3.836.874L50.2 66.441a3.462 3.462 0 0 1-.437 2.611c-.183.28-.413.525-.68.725-.13.108-.297.253-.512.442-.291.212-.611.38-.95.498a4.566 4.566 0 0 0-.466.216l-.093.047c-.761.21-1.531.378-2.309.507a11.69 11.69 0 0 1-1.9.235 2.32 2.32 0 0 1-.354-.018l.018-.217-.046.208a3.921 3.921 0 0 1-3.11-1.491 3.488 3.488 0 0 1-.522-1.212 581.62 581.62 0 0 1-5.458-22.636 588.273 588.273 0 0 1-4.079-20.278 3.493 3.493 0 0 1 .438-2.6 3.37 3.37 0 0 1 2.114-1.532l10.664-2.737c.885-.348 9.089-3.343 15.859 1.541a16.79 16.79 0 0 1 6.218 9.882c.476 1.886 1.928 7.558-1.238 12.951z"/><path d="M44.884 42.339s-2.84-12.552-2.728-12.152l4.125-.922a4.96 4.96 0 0 1 4.014.317c1.201.801 1.47 2.264 2.011 5.174.474 2.543.717 3.819.056 4.815-.615.94-1.639 1.462-3.774 1.941l-3.704.827z"/><path d="M47.286 1.739C23.467 1.57 4.02 20.743 3.851 44.562c-.169 23.82 19.003 43.267 42.823 43.437 23.82.167 43.267-19.004 43.436-42.825v-.304c.084-23.736-19.089-43.046-42.824-43.131zm0 80.007C26.92 81.891 10.292 65.5 10.148 45.134 10.002 24.768 26.394 8.14 46.76 7.995c20.365-.145 36.993 16.247 37.138 36.612l.001.263c.049 20.283-16.33 36.78-36.613 36.876z"/></g></svg>